<?xml version="1.0" encoding="UTF-8" standalone="no"?>
<svg
   xmlns:dc="http://purl.org/dc/elements/1.1/"
   xmlns:cc="http://creativecommons.org/ns#"
   xmlns:rdf="http://www.w3.org/1999/02/22-rdf-syntax-ns#"
   xmlns:svg="http://www.w3.org/2000/svg"
   xmlns="http://www.w3.org/2000/svg"
   viewBox="0 0 745.03998 606.18665"
   height="606.18665"
   width="745.03998"
   xml:space="preserve"
   id="svg2"
   version="1.1"><metadata
     id="metadata8"><rdf:RDF><cc:Work
         rdf:about=""><dc:format>image/svg+xml</dc:format><dc:type
           rdf:resource="http://purl.org/dc/dcmitype/StillImage" /></cc:Work></rdf:RDF></metadata><defs
     id="defs6" /><g
     transform="matrix(1.3333333,0,0,-1.3333333,0,606.18667)"
     id="g10"><g
       transform="scale(0.1)"
       id="g12"><path
         id="path14"
         style="fill:#231f20;fill-opacity:1;fill-rule:nonzero;stroke:none"
         d="M 150.789,1499.21 V 726.238 c 0,-10.968 -9.047,-20.379 -19.598,-20.379 H 19.6055 C 9.04688,705.859 0,715.27 0,726.238 V 1731.25 c 0,10.98 9.04688,20.39 19.6055,20.39 H 211.109 c 39.204,0 49.758,-7.84 61.825,-45.47 L 545.863,872.051 805.227,1688.92 c 18.093,54.88 24.125,62.72 57.296,62.72 h 203.567 c 10.56,0 19.61,-9.41 19.61,-20.39 V 726.238 c 0,-10.968 -9.05,-20.379 -19.61,-20.379 H 909.273 c -10.558,0 -19.605,9.411 -19.605,20.379 V 1499.21 L 643.879,770.148 c -19.602,-59.589 -25.633,-64.289 -64.84,-64.289 H 456.898 c -28.652,0 -36.191,7.84 -52.777,54.879 L 150.789,1499.21" /><path
         id="path16"
         style="fill:#231f20;fill-opacity:1;fill-rule:nonzero;stroke:none"
         d="m 561.664,348.91 h 53.207 c 3.582,0 6.652,-3.07 6.652,-6.648 V 134.051 c 0,-37.8713 4.09,-50.6604 21.485,-64.9807 14.84,-12.2812 31.719,-17.8984 55.765,-17.8984 24.043,0 41.438,5.1094 56.278,15.8476 19.437,14.3321 25.066,29.1602 25.066,65.4805 v 209.762 c 0,3.578 3.067,6.648 6.653,6.648 h 38.878 c 4.094,0 7.161,-3.07 7.161,-6.648 v -228.68 c 0,-37.3515 -14.325,-67.0234 -40.93,-87.4804 C 767.836,8.19141 738.676,0 694.684,0 649.656,0 618.965,8.19141 594.41,27.1211 564.223,50.1406 555.016,74.1797 555.016,130.969 v 211.293 c 0,3.578 3.07,6.648 6.648,6.648" /><path
         id="path18"
         style="fill:#231f20;fill-opacity:1;fill-rule:nonzero;stroke:none"
         d="M 1154.9,270.121 V 14.332 c 0,-3.582 -3.07,-6.65231 -6.65,-6.65231 h -37.86 c -3.58,0 -6.65,3.07031 -6.65,6.65231 v 327.93 c 0,3.578 3.07,6.648 6.65,6.648 h 56.28 c 8.69,0 12.78,-2.558 17.39,-10.238 L 1333.95,96.1797 V 342.262 c 0,3.578 3.07,6.648 6.65,6.648 h 37.86 c 3.58,0 6.65,-3.07 6.65,-6.648 V 14.332 c 0,-3.582 -3.07,-6.65231 -6.65,-6.65231 h -51.67 c -8.19,0 -12.79,2.55861 -17.4,10.23051 L 1154.9,270.121" /><path
         id="path20"
         style="fill:#231f20;fill-opacity:1;fill-rule:nonzero;stroke:none"
         d="m 1657.47,14.332 v 327.93 c 0,3.578 3.07,6.648 6.65,6.648 h 53.21 c 3.58,0 6.65,-3.07 6.65,-6.648 V 14.332 c 0,-3.582 -3.07,-6.65231 -6.65,-6.65231 h -53.21 c -3.58,0 -6.65,3.07031 -6.65,6.65231" /><path
         id="path22"
         style="fill:#231f20;fill-opacity:1;fill-rule:nonzero;stroke:none"
         d="m 2122.5,74.6992 83.91,262.9488 c 3.07,9.731 5.11,11.262 14.84,11.262 h 31.71 c 6.65,0 9.21,-1.531 9.21,-6.14 0,-1.54 -0.51,-3.579 -1.02,-5.122 L 2154.22,24.0508 C 2148.6,6.14844 2145.53,3.58984 2132.74,3.58984 h -36.84 c -13.3,0 -15.34,1.53125 -20.46,16.35936 L 1966.98,336.629 c -1.02,2.043 -1.02,3.582 -1.02,5.121 0,5.109 2.56,7.16 10.74,7.16 h 43.49 c 10.74,0 13.3,-2.051 16.37,-11.769 L 2122.5,74.6992" /><path
         id="path24"
         style="fill:#231f20;fill-opacity:1;fill-rule:nonzero;stroke:none"
         d="m 2570.85,297.75 v -85.43 h 105.9 c 3.58,0 6.65,-3.078 6.65,-6.648 v -37.863 c 0,-3.59 -3.07,-6.649 -6.65,-6.649 h -105.9 V 58.8398 h 141.71 c 3.59,0 6.65,-3.0781 6.65,-6.6484 V 14.332 c 0,-3.582 -3.06,-6.65231 -6.65,-6.65231 H 2511 c -3.58,0 -6.65,3.07031 -6.65,6.65231 v 327.93 c 0,3.578 3.07,6.648 6.65,6.648 h 191.33 c 3.58,0 6.65,-3.07 6.65,-6.648 v -37.864 c 0,-3.578 -3.07,-6.648 -6.65,-6.648 h -131.48" /><path
         id="path26"
         style="fill:#231f20;fill-opacity:1;fill-rule:nonzero;stroke:none"
         d="m 3032.91,202.59 h 44 c 29.16,0 48.09,20.469 48.09,51.672 0,31.207 -18.93,50.66 -48.61,50.66 h -43.48 z m 0,-37.34 V 14.332 c 0,-3.582 -3.07,-6.65231 -6.66,-6.65231 h -53.2 c -3.58,0 -6.64,3.07031 -6.64,6.65231 v 327.93 c 0,3.578 3.06,6.648 6.64,6.648 h 112.56 c 39.9,0 60.87,-6.14 79.29,-23.019 17.39,-15.86 26.6,-37.86 26.6,-64.981 0,-51.148 -24.55,-80.828 -72.12,-87.48 l 2.03,-3.071 c 3.08,-4.609 8.71,-12.269 16.89,-23.007 13.81,-18.942 23.03,-31.723 29.67,-41.454 l 54.74,-81.8472 c 4.09,-5.6289 4.59,-7.6719 4.59,-9.7188 0,-4.60153 -4.08,-6.65231 -12.26,-6.65231 h -58.32 c -2.56,0 -4.61,1.01953 -5.63,3.07031 l -96.7,147.34 c -4.08,6.129 -5.62,7.16 -12.28,7.16 h -9.2" /><path
         id="path28"
         style="fill:#231f20;fill-opacity:1;fill-rule:nonzero;stroke:none"
         d="m 3566.64,145.301 -51.15,36.308 c -33.26,23.539 -45.02,43.493 -45.02,76.231 0,58.332 44,96.191 112.03,96.191 47.58,0 82.36,-11.261 82.36,-26.101 v -36.828 c 0,-4.602 -2.03,-7.161 -5.62,-7.161 -2.05,0 -4.59,0.508 -7.68,2.039 -23.53,12.282 -41.93,16.879 -64.96,16.879 -31.72,0 -49.63,-13.3 -49.63,-36.308 0,-15.86 8.19,-26.61 32.74,-42.461 l 55.25,-36.84 c 35.82,-24.039 50.14,-47.578 50.14,-83.391 0,-62.9293 -43.99,-99.24962 -119.71,-99.24962 -53.2,0 -95.16,13.81252 -95.16,31.72262 v 34.7891 c 0,4.5977 2.06,7.1484 6.14,7.1484 1.54,0 4.61,-1.0078 7.67,-2.5507 27.13,-14.3204 48.09,-20.4571 72.66,-20.4571 36.84,0 56.78,14.8281 56.78,41.4297 0,17.9106 -7.68,28.1486 -36.84,48.6096" /><path
         id="path30"
         style="fill:#231f20;fill-opacity:1;fill-rule:nonzero;stroke:none"
         d="m 3931.39,14.332 v 327.93 c 0,3.578 3.08,6.648 6.66,6.648 h 53.2 c 3.57,0 6.64,-3.07 6.64,-6.648 V 14.332 c 0,-3.582 -3.07,-6.65231 -6.64,-6.65231 h -53.2 c -3.58,0 -6.66,3.07031 -6.66,6.65231" /><path
         id="path32"
         style="fill:#231f20;fill-opacity:1;fill-rule:nonzero;stroke:none"
         d="m 4342.21,298.77 h -95.67 c -3.59,0 -6.66,3.07 -6.66,6.652 v 36.84 c 0,3.578 3.07,6.648 6.66,6.648 h 258.87 c 4.08,0 7.15,-3.07 7.15,-6.648 v -36.84 c 0,-3.582 -3.07,-6.652 -7.15,-6.652 h -96.7 V 14.332 c 0,-3.582 -3.07,-6.65231 -6.66,-6.65231 h -53.2 c -3.58,0 -6.64,3.07031 -6.64,6.65231 V 298.77" /><path
         id="path34"
         style="fill:#231f20;fill-opacity:1;fill-rule:nonzero;stroke:none"
         d="m 4859.51,141.199 -115.12,194.922 c -2.05,2.551 -2.55,5.109 -2.55,6.649 0,3.582 3.59,6.14 9.72,6.14 h 50.65 c 9.72,0 12.79,-2.051 17.91,-11.262 l 78.79,-134.539 74.68,137.621 c 3.58,6.129 6.64,8.18 13.81,8.18 h 35.82 c 5.63,0 9.71,-2.558 9.71,-6.14 0,-1.54 -1.02,-3.579 -2.05,-5.629 L 4926.02,144.789 V 14.332 c 0,-3.582 -3.07,-6.65231 -6.66,-6.65231 h -53.21 c -3.57,0 -6.64,3.07031 -6.64,6.65231 v 126.867" /><path
         id="path36"
         style="fill:#231f20;fill-opacity:1;fill-rule:nonzero;stroke:none"
         d="m 1735.27,742.191 h -3.01 c -22.54,0 -28.56,-1.511 -49.6,-10.531 l -46.6,-18.031 c -36.07,-15.027 -87.18,-22.551 -139.8,-22.551 -169.85,0 -257.03,84.184 -257.03,248.012 v 499.05 c 0,10.53 9.02,19.55 19.54,19.55 h 141.3 c 10.52,0 19.53,-9.02 19.53,-19.55 v -435.91 c 0,-118.761 43.59,-171.359 145.81,-171.359 97.71,0 151.83,39.078 151.83,108.219 v 499.05 c 0,10.53 7.51,19.55 19.54,19.55 h 139.79 c 12.02,0 21.04,-9.02 21.04,-19.55 V 725.641 c 0,-10.52 -9.02,-19.532 -21.04,-19.532 H 1751.8 c -9.01,0 -16.53,9.012 -16.53,19.532 v 16.55" /><path
         id="path38"
         style="fill:#231f20;fill-opacity:1;fill-rule:nonzero;stroke:none"
         d="m 2218.41,1412.59 c 18.03,1.5 21.04,1.5 42.08,10.53 57.13,25.55 118.75,40.58 168.36,40.58 49.6,0 60.12,-6.01 60.12,-31.57 v -109.72 c 0,-16.55 -7.51,-24.06 -24.05,-24.06 -4.51,0 -12.02,0 -19.54,1.51 l -27.05,2.99 -36.08,6.01 c -12.03,1.51 -24.05,1.51 -36.07,1.51 -81.18,0 -112.74,-31.56 -112.74,-109.72 V 725.641 c 0,-10.52 -9.02,-19.532 -19.54,-19.532 h -141.3 c -10.52,0 -19.54,9.012 -19.54,19.532 v 712.499 c 0,10.53 9.02,19.55 19.54,19.55 h 121.75 c 15.04,0 24.06,-7.52 24.06,-19.55 v -25.55" /><path
         id="path40"
         style="fill:#231f20;fill-opacity:1;fill-rule:nonzero;stroke:none"
         d="m 3077.97,927.059 v 303.651 c 0,78.15 -51.09,117.24 -151.8,117.24 -135.29,0 -208.94,-93.19 -208.94,-261.54 0,-172.859 72.15,-264.551 207.44,-264.551 96.19,0 153.3,39.071 153.3,105.2 z m 15.06,-178.86 c -13.56,0 -16.57,-1.508 -31.58,-9.019 -52.6,-28.559 -111.24,-42.09 -169.85,-42.09 -214.96,0 -354.75,150.32 -354.75,380.3 0,232.98 147.31,395.32 357.74,395.32 58.61,0 102.21,-10.52 145.8,-37.58 16.54,-9.01 19.55,-10.52 37.58,-10.52 v 314.17 c 0,10.52 9.02,19.53 19.55,19.53 h 141.29 c 10.53,0 19.55,-9.01 19.55,-19.53 V 725.641 c 0,-10.52 -9.02,-19.532 -19.55,-19.532 h -121.76 c -12.01,0 -24.02,9.012 -24.02,19.532 v 22.558" /><path
         id="path42"
         style="fill:#231f20;fill-opacity:1;fill-rule:nonzero;stroke:none"
         d="m 3553.89,1081.9 c 0,-171.361 70.64,-272.08 187.89,-272.08 117.24,0 187.89,99.219 187.89,264.56 0,171.36 -70.65,273.57 -186.39,273.57 -118.75,0 -189.39,-99.21 -189.39,-266.05 z m -180.39,-3.01 c 0,255.54 129.27,393.82 368.28,393.82 112.73,0 187.89,-24.04 249.51,-79.67 78.16,-70.63 118.75,-175.87 118.75,-306.63 0,-264.551 -126.25,-402.851 -369.77,-402.851 -115.74,0 -184.88,22.55 -249.53,81.171 -79.67,69.149 -117.24,171.36 -117.24,314.16" /><path
         id="path44"
         style="fill:#231f20;fill-opacity:1;fill-rule:nonzero;stroke:none"
         d="m 4813.32,853.41 v -76.648 c 0,-48.114 -105.21,-82.672 -245,-82.672 -233.01,0 -371.29,141.281 -371.29,381.79 0,239 150.31,396.83 377.29,396.83 132.28,0 239,-33.07 239,-75.15 v -81.17 c 0,-10.53 -7.52,-18.04 -16.52,-18.04 -6.02,0 -15.04,3 -27.07,9.02 -43.6,24.06 -111.23,40.58 -165.34,40.58 -148.82,0 -226.97,-88.68 -226.97,-258.53 0,-180.381 72.15,-267.561 217.95,-267.561 60.12,0 132.27,18.039 178.89,45.09 9,6.012 18.03,9.012 24.02,9.012 9.02,0 15.04,-9.012 15.04,-22.551" /><path
         id="path46"
         style="fill:#231f20;fill-opacity:1;fill-rule:nonzero;stroke:none"
         d="m 5106.82,1423.12 h 3.02 c 18.03,0 21.02,0 45.08,12.01 48.11,25.57 106.72,37.58 171.37,37.58 165.35,0 261.54,-94.7 261.54,-257.03 V 725.641 c 0,-10.52 -9.02,-19.532 -19.55,-19.532 h -141.29 c -10.53,0 -19.53,9.012 -19.53,19.532 v 429.919 c 0,126.26 -43.59,180.37 -144.32,180.37 -97.69,0 -156.32,-40.59 -156.32,-106.73 V 725.641 c 0,-10.52 -9.03,-19.532 -19.55,-19.532 H 4946 c -10.55,0 -19.55,9.012 -19.55,19.532 V 1738.78 c 0,10.52 9,19.53 19.55,19.53 h 141.27 c 10.52,0 19.55,-9.01 19.55,-19.53 v -315.66" /><path
         id="path48"
         style="fill:#e51635;fill-opacity:1;fill-rule:nonzero;stroke:none"
         d="m 3584.29,2833.36 h -442.47 c -50.01,0 -159.4,-10.41 -236.24,-56.99 -63.17,-38.29 -111.07,-106.41 -111.07,-106.41 0,0 -47.88,68.12 -111.24,106.41 -76.75,46.58 -186.13,56.99 -236.15,56.99 h -441.51 c 39.69,-75.73 89.64,-148.65 152.6,-211.59 343.6,-343.61 636.18,-455.16 636.18,-455.16 0,0 288.1,105.74 637.31,454.94 63.04,63.05 112.97,136.04 152.59,211.81" /><path
         id="path50"
         style="fill:#80cc28;fill-opacity:1;fill-rule:nonzero;stroke:none"
         d="m 3881.49,3381.6 -58.55,-142.63 c 0,0 -68.34,-29.55 -177.69,-29.55 -109.43,0 -100.08,9.15 -211.81,9.15 -244.42,0 -351.31,-83.45 -351.31,-83.45 0,0 52.67,115.3 197.01,175.51 70.11,29.37 126.35,33.56 167.66,33.56 41.27,0 164.34,-18.93 239.17,-18.93 84.59,0 195.52,56.34 195.52,56.34" /><path
         id="path52"
         style="fill:#80cc28;fill-opacity:1;fill-rule:nonzero;stroke:none"
         d="m 1708.92,3381.6 58.5,-142.63 c 0,0 68.29,-29.55 177.72,-29.55 109.41,0 100.11,9.15 211.85,9.15 244.4,0 351.3,-83.45 351.3,-83.45 0,0 -52.74,115.3 -197.03,175.51 -70.1,29.37 -126.38,33.56 -167.69,33.56 -41.27,0 -164.29,-18.93 -239.17,-18.93 -84.57,0 -195.48,56.34 -195.48,56.34" /><path
         id="path54"
         style="fill:#fab20b;fill-opacity:1;fill-rule:nonzero;stroke:none"
         d="m 3092.78,3953.79 c 0,74.61 -27.54,143.01 -72.74,195.65 l -13.53,-989.08 -28.12,1029.05 c -25.92,20.47 -55.23,36.63 -87.01,47.55 l -14.76,-1151.1 -29.74,1162.52 c -16.91,2.94 -34.13,4.73 -51.85,4.67 -17.7,-0.08 -34.93,-2 -51.78,-5.03 l -29.81,-1162.16 -14.75,1150.52 c -31.8,-11 -61.13,-27.17 -87.06,-47.58 L 2583.51,3160.36 2570,4149.01 c -45.27,-52.44 -72.8,-120.56 -72.8,-195.22 0,-55.95 -10.17,-452.52 -9.45,-617.39 0.76,-181.69 137.12,-264.95 200.33,-288.67 95.72,-35.96 106.95,-121.91 106.95,-121.91 0,0 11.21,85.95 106.86,121.91 63.2,23.72 197.24,106.98 200.37,288.67 2.88,164.8 -9.48,561.44 -9.48,617.39" /><path
         id="path56"
         style="fill:#559821;fill-opacity:1;fill-rule:nonzero;stroke:none"
         d="m 3808.3,3056.34 c 0,0 -599.51,0 -649.77,0 -211.17,0 -356.74,-131.73 -363.37,-296.83 6.13,8.19 66.91,173.85 356.54,173.85 58.55,0 605.85,0 605.85,0 l 51.05,122.3 -0.3,0.68" /><path
         id="path58"
         style="fill:#559821;fill-opacity:1;fill-rule:nonzero;stroke:none"
         d="m 1782.11,3056.73 c 0,0 599.52,0 649.78,0 211.16,0 356.74,-131.73 363.37,-296.82 -6.13,8.18 -66.92,173.84 -356.54,173.84 -58.56,0 -605.85,0 -605.85,0 l -51.06,122.3 0.3,0.68" /><path
         id="path60"
         style="fill:#e51635;fill-opacity:1;fill-rule:nonzero;stroke:none"
         d="m 1858.82,3410.55 c 0,-17.46 1.31,-45.69 4.87,-81.53 13.86,-2.29 27.61,-3.76 40.71,-3.76 74.88,0 197.9,18.93 239.17,18.93 41.31,0 97.59,-4.19 167.69,-33.56 16.09,-6.72 30.99,-14.14 44.86,-21.99 -3.67,19.18 -6.84,40.1 -6.84,55.61 0,4.42 0.59,29.21 1.55,66.44 l -40.93,22.41 -108.79,4.6 v 11.9 l 108.79,4.72 42.69,23.3 c 1.03,38.63 2.22,82.63 3.45,127.97 l -41.85,22.87 -108.77,4.63 v 11.95 l 108.77,4.68 43.72,23.84 c 1.31,47.98 2.61,95.09 3.76,136.63 l -41.97,27.72 -107.98,13.81 0.5,6.03 0.54,5.91 108.7,-4.53 42.08,18.56 c 1.29,46.42 2.13,76.27 2.13,76.27 0,22.61 1.78,44.8 5.16,66.46 l -39.74,42.52 -101.85,38.73 1.85,5.76 1.8,5.58 104.75,-29.89 51.06,9.31 c 13.59,39.77 32.87,76.89 56.89,110.42 l -1.1,0.94 -22.16,56.16 -80.32,74.16 3.81,4.61 3.83,4.62 86.27,-67.1 58.62,-12.13 2.31,-1.95 c 26.4,25.42 56.02,47.5 88.24,65.52 l -1.43,3.05 3.55,60.36 -41.81,101.57 5.44,2.52 5.3,2.5 50.15,-97.51 48.1,-36.08 2.15,-4.71 c 32.31,10.92 66.33,18.09 101.58,20.99 l 26.48,51.53 4.58,114.48 h -930.36 c 0,0 0,-1037.99 0,-1135.83 z m 942.22,1135.83 4.68,-114.48 26.62,-51.77 c 35.21,-3.15 69.16,-10.59 101.4,-21.75 l 2.6,5.71 48.09,36.08 50.15,97.51 5.29,-2.5 5.45,-2.52 -41.8,-101.57 3.54,-60.36 -2.16,-4.59 c 31.84,-18.1 61.12,-40.15 87.18,-65.5 l 4.1,3.47 58.61,12.13 86.27,67.1 3.84,-4.62 3.81,-4.61 -80.32,-74.16 -22.16,-56.16 -3.18,-2.74 c 23.3,-32.87 42.06,-69.15 55.41,-107.98 l 54.62,-9.95 104.75,29.89 1.82,-5.58 1.83,-5.76 -101.85,-38.73 -41.08,-43.95 -1.67,-0.56 c 3.18,-21.03 4.84,-42.56 4.84,-64.47 0,0 0.8,-29.19 2.04,-74.76 l 45.52,-20.07 108.67,4.53 0.56,-5.91 0.49,-6.03 -107.97,-13.81 -45.34,-29.94 c 1.11,-40.43 2.34,-86.02 3.59,-132.48 l 47.25,-25.77 108.78,-4.68 v -11.95 l -108.78,-4.63 -45.33,-24.76 c 1.17,-43.89 2.31,-86.47 3.29,-124.09 l 46.34,-25.29 108.78,-4.72 v -11.9 l -108.78,-4.6 -44.51,-24.38 c 0.92,-36.41 1.48,-60.56 1.48,-64.84 0,-15.68 -3.14,-37.1 -6.75,-56.57 h 0.86 c 14.54,8.35 30.22,16.23 47.23,23.32 70.11,29.37 126.35,33.56 167.66,33.56 41.27,0 164.34,-18.93 239.17,-18.93 13.03,0 26.71,1.45 40.49,3.72 3.48,35.86 4.74,64.1 4.74,81.57 0,97.84 0,1135.83 0,1135.83 h -930.16" /></g></g></svg>