<?xml version="1.0" encoding="UTF-8" standalone="no"?>
<svg
   xmlns:dc="http://purl.org/dc/elements/1.1/"
   xmlns:cc="http://creativecommons.org/ns#"
   xmlns:rdf="http://www.w3.org/1999/02/22-rdf-syntax-ns#"
   xmlns:svg="http://www.w3.org/2000/svg"
   xmlns="http://www.w3.org/2000/svg"
   viewBox="0 0 417.33334 393.33334"
   height="393.33334"
   width="417.33334"
   xml:space="preserve"
   id="svg2"
   version="1.1"><metadata
     id="metadata8"><rdf:RDF><cc:Work
         rdf:about=""><dc:format>image/svg+xml</dc:format><dc:type
           rdf:resource="http://purl.org/dc/dcmitype/StillImage" /></cc:Work></rdf:RDF></metadata><defs
     id="defs6" /><g
     transform="matrix(1.3333333,0,0,-1.3333333,0,393.33333)"
     id="g10"><g
       transform="scale(0.1)"
       id="g12"><path
         id="path14"
         style="fill:#efe7bf;fill-opacity:1;fill-rule:nonzero;stroke:none"
         d="M 3130,0 H 0 V 2950 H 3130 V 0" /><path
         id="path16"
         style="fill:#231f20;fill-opacity:1;fill-rule:nonzero;stroke:none"
         d="M 496.762,1183.63 V 868.301 c 0,-4.469 -3.692,-8.321 -7.996,-8.321 h -45.52 c -4.308,0 -7.996,3.852 -7.996,8.321 V 1278.3 c 0,4.47 3.688,8.32 7.996,8.32 h 78.125 c 15.988,0 20.301,-3.2 25.215,-18.55 L 657.93,927.781 763.738,1261.03 c 7.379,22.39 9.848,25.59 23.371,25.59 h 83.047 c 4.309,0 7.996,-3.85 7.996,-8.32 V 868.301 c 0,-4.469 -3.687,-8.321 -7.996,-8.321 h -63.968 c -4.309,0 -8.004,3.852 -8.004,8.321 V 1183.63 L 697.914,886.211 C 689.918,861.91 687.449,859.98 671.465,859.98 h -49.824 c -11.696,0 -14.77,3.2 -21.536,22.391 L 496.762,1183.63" /><path
         id="path18"
         style="fill:#231f20;fill-opacity:1;fill-rule:nonzero;stroke:none"
         d="m 664.375,714.371 h 21.711 c 1.457,0 2.715,-1.25 2.715,-2.711 v -84.941 c 0,-15.449 1.668,-20.668 8.762,-26.508 6.054,-5.012 12.941,-7.301 22.75,-7.301 9.808,0 16.898,2.09 22.957,6.461 7.929,5.848 10.222,11.899 10.222,26.719 v 85.57 c 0,1.461 1.254,2.711 2.715,2.711 h 15.863 c 1.668,0 2.918,-1.25 2.918,-2.711 v -93.289 c 0,-15.25 -5.84,-27.351 -16.695,-35.68 -9.809,-7.32 -21.707,-10.66 -39.645,-10.66 -18.375,0 -30.894,3.34 -40.91,11.059 -12.316,9.39 -16.074,19.211 -16.074,42.371 v 86.199 c 0,1.461 1.25,2.711 2.711,2.711" /><path
         id="path20"
         style="fill:#231f20;fill-opacity:1;fill-rule:nonzero;stroke:none"
         d="M 906.387,682.23 V 577.871 c 0,-1.449 -1.254,-2.691 -2.715,-2.691 h -15.445 c -1.457,0 -2.715,1.242 -2.715,2.691 V 711.66 c 0,1.461 1.258,2.711 2.715,2.711 h 22.961 c 3.542,0 5.218,-1.051 7.093,-4.18 l 61.145,-98.921 v 100.39 c 0,1.461 1.254,2.711 2.719,2.711 h 15.445 c 1.465,0 2.72,-1.25 2.72,-2.711 V 577.871 c 0,-1.449 -1.255,-2.691 -2.72,-2.691 h -21.074 c -3.348,0 -5.223,1.019 -7.102,4.16 l -63.027,102.89" /><path
         id="path22"
         style="fill:#231f20;fill-opacity:1;fill-rule:nonzero;stroke:none"
         d="M 1111.41,577.871 V 711.66 c 0,1.461 1.25,2.711 2.71,2.711 h 21.71 c 1.46,0 2.72,-1.25 2.72,-2.711 V 577.871 c 0,-1.449 -1.26,-2.691 -2.72,-2.691 h -21.71 c -1.46,0 -2.71,1.242 -2.71,2.691" /><path
         id="path24"
         style="fill:#231f20;fill-opacity:1;fill-rule:nonzero;stroke:none"
         d="m 1301.12,602.52 34.23,107.269 c 1.25,3.961 2.08,4.582 6.05,4.582 h 12.95 c 2.71,0 3.74,-0.621 3.74,-2.5 0,-0.641 -0.2,-1.461 -0.41,-2.082 L 1314.05,581.84 c -2.29,-7.301 -3.54,-8.34 -8.76,-8.34 h -15.03 c -5.42,0 -6.25,0.621 -8.34,6.68 l -44.24,129.191 c -0.42,0.82 -0.42,1.449 -0.42,2.09 0,2.07 1.04,2.91 4.38,2.91 h 17.74 c 4.38,0 5.43,-0.84 6.68,-4.801 l 35.06,-107.05" /><path
         id="path26"
         style="fill:#231f20;fill-opacity:1;fill-rule:nonzero;stroke:none"
         d="m 1484.02,693.5 v -34.852 h 43.21 c 1.44,0 2.71,-1.257 2.71,-2.707 v -15.453 c 0,-1.468 -1.27,-2.718 -2.71,-2.718 h -43.21 v -41.731 h 57.82 c 1.46,0 2.69,-1.25 2.69,-2.719 v -15.449 c 0,-1.449 -1.23,-2.691 -2.69,-2.691 h -82.24 c -1.46,0 -2.71,1.242 -2.71,2.691 V 711.66 c 0,1.461 1.25,2.711 2.71,2.711 h 78.08 c 1.44,0 2.69,-1.25 2.69,-2.711 v -15.449 c 0,-1.441 -1.25,-2.711 -2.69,-2.711 h -53.66" /><path
         id="path28"
         style="fill:#231f20;fill-opacity:1;fill-rule:nonzero;stroke:none"
         d="m 1672.52,654.691 h 17.95 c 11.9,0 19.62,8.34 19.62,21.059 0,12.75 -7.72,20.68 -19.84,20.68 h -17.73 z m 0,-15.242 v -61.578 c 0,-1.449 -1.25,-2.691 -2.72,-2.691 h -21.69 c -1.47,0 -2.72,1.242 -2.72,2.691 V 711.66 c 0,1.461 1.25,2.711 2.72,2.711 H 1694 c 16.29,0 24.86,-2.5 32.37,-9.391 7.09,-6.46 10.84,-15.449 10.84,-26.511 0,-20.867 -10.02,-32.957 -29.42,-35.699 l 0.82,-1.239 c 1.27,-1.871 3.57,-5.011 6.91,-9.383 5.63,-7.738 9.38,-12.949 12.1,-16.918 l 22.33,-33.39 c 1.66,-2.289 1.87,-3.129 1.87,-3.969 0,-1.871 -1.66,-2.691 -5,-2.691 h -23.79 c -1.06,0 -1.88,0.41 -2.3,1.242 l -39.45,60.098 c -1.67,2.5 -2.3,2.929 -5.01,2.929 h -3.75" /><path
         id="path30"
         style="fill:#231f20;fill-opacity:1;fill-rule:nonzero;stroke:none"
         d="m 1890.24,631.309 -20.86,14.8 c -13.57,9.61 -18.36,17.762 -18.36,31.121 0,23.79 17.95,39.231 45.7,39.231 19.41,0 33.59,-4.59 33.59,-10.641 v -15.039 c 0,-1.859 -0.82,-2.922 -2.28,-2.922 -0.84,0 -1.88,0.211 -3.13,0.832 -9.61,5.02 -17.12,6.899 -26.5,6.899 -12.93,0 -20.26,-5.43 -20.26,-14.809 0,-6.48 3.33,-10.859 13.36,-17.34 l 22.54,-15.011 c 14.63,-9.821 20.45,-19.43 20.45,-34.032 0,-25.668 -17.94,-40.476 -48.83,-40.476 -21.7,0 -38.82,5.629 -38.82,12.937 v 14.18 c 0,1.883 0.84,2.922 2.52,2.922 0.62,0 1.87,-0.422 3.11,-1.039 11.08,-5.832 19.62,-8.352 29.65,-8.352 15.02,0 23.15,6.051 23.15,16.91 0,7.309 -3.12,11.469 -15.03,19.829" /><path
         id="path32"
         style="fill:#231f20;fill-opacity:1;fill-rule:nonzero;stroke:none"
         d="M 2039.05,577.871 V 711.66 c 0,1.461 1.26,2.711 2.71,2.711 h 21.71 c 1.47,0 2.7,-1.25 2.7,-2.711 V 577.871 c 0,-1.449 -1.23,-2.691 -2.7,-2.691 h -21.71 c -1.45,0 -2.71,1.242 -2.71,2.691" /><path
         id="path34"
         style="fill:#231f20;fill-opacity:1;fill-rule:nonzero;stroke:none"
         d="m 2206.64,693.93 h -39.04 c -1.45,0 -2.7,1.25 -2.7,2.699 v 15.031 c 0,1.461 1.25,2.711 2.7,2.711 h 105.62 c 1.66,0 2.91,-1.25 2.91,-2.711 v -15.031 c 0,-1.449 -1.25,-2.699 -2.91,-2.699 h -39.45 V 577.871 c 0,-1.449 -1.25,-2.691 -2.72,-2.691 h -21.7 c -1.46,0 -2.71,1.242 -2.71,2.691 V 693.93" /><path
         id="path36"
         style="fill:#231f20;fill-opacity:1;fill-rule:nonzero;stroke:none"
         d="m 2417.68,629.648 -46.96,79.5 c -0.84,1.043 -1.05,2.082 -1.05,2.723 0,1.449 1.46,2.5 3.97,2.5 h 20.66 c 3.97,0 5.21,-0.84 7.3,-4.582 l 32.14,-54.91 30.47,56.16 c 1.47,2.492 2.72,3.332 5.63,3.332 h 14.61 c 2.31,0 3.97,-1.051 3.97,-2.5 0,-0.641 -0.42,-1.461 -0.84,-2.301 l -42.79,-78.468 v -53.231 c 0,-1.449 -1.24,-2.691 -2.7,-2.691 h -21.7 c -1.46,0 -2.71,1.242 -2.71,2.691 v 51.777" /><path
         id="path38"
         style="fill:#231f20;fill-opacity:1;fill-rule:nonzero;stroke:none"
         d="m 1143.15,874.809 h -1.23 c -9.2,0 -11.65,-0.61 -20.24,-4.297 l -19,-7.364 c -14.73,-6.117 -35.57,-9.187 -57.03,-9.187 -69.298,0 -104.865,34.34 -104.865,101.18 v 203.589 c 0,4.29 3.68,7.95 7.977,7.95 h 57.638 c 4.29,0 7.98,-3.66 7.98,-7.95 V 980.898 c 0,-48.449 17.77,-69.918 59.47,-69.918 39.86,0 61.94,15.95 61.94,44.161 v 203.589 c 0,4.29 3.06,7.95 7.97,7.95 h 57.03 c 4.9,0 8.59,-3.66 8.59,-7.95 V 868.059 c 0,-4.289 -3.69,-7.977 -8.59,-7.977 h -50.9 c -3.67,0 -6.74,3.688 -6.74,7.977 v 6.75" /><path
         id="path40"
         style="fill:#231f20;fill-opacity:1;fill-rule:nonzero;stroke:none"
         d="m 1340.24,1148.3 c 7.36,0.61 8.59,0.61 17.17,4.3 23.31,10.42 48.44,16.55 68.68,16.55 20.24,0 24.53,-2.47 24.53,-12.88 v -44.77 c 0,-6.73 -3.07,-9.82 -9.81,-9.82 -1.85,0 -4.91,0 -7.97,0.62 l -11.04,1.23 -14.72,2.45 c -4.9,0.6 -9.8,0.6 -14.72,0.6 -33.11,0 -45.99,-12.86 -45.99,-44.74 V 868.059 c 0,-4.289 -3.67,-7.977 -7.97,-7.977 h -57.64 c -4.29,0 -7.97,3.688 -7.97,7.977 v 290.671 c 0,4.29 3.68,7.95 7.97,7.95 h 49.66 c 6.14,0 9.82,-3.05 9.82,-7.95 v -10.43" /><path
         id="path42"
         style="fill:#231f20;fill-opacity:1;fill-rule:nonzero;stroke:none"
         d="m 1690.9,950.23 v 123.87 c 0,31.88 -20.84,47.83 -61.93,47.83 -55.18,0 -85.24,-38.01 -85.24,-106.7 0,-70.519 29.44,-107.929 84.63,-107.929 39.24,0 62.54,15.961 62.54,42.929 z m 6.15,-72.96 c -5.53,0 -6.78,-0.629 -12.88,-3.7 -21.46,-11.648 -45.39,-17.148 -69.31,-17.148 -87.67,0 -144.71,61.308 -144.71,155.128 0,95.03 60.1,161.27 145.94,161.27 23.91,0 41.7,-4.28 59.49,-15.33 6.74,-3.68 7.96,-4.29 15.32,-4.29 v 128.17 c 0,4.28 3.68,7.96 7.97,7.96 h 57.63 c 4.3,0 7.99,-3.68 7.99,-7.96 V 868.059 c 0,-4.289 -3.69,-7.977 -7.99,-7.977 h -49.66 c -4.91,0 -9.79,3.688 -9.79,7.977 v 9.211" /><path
         id="path44"
         style="fill:#231f20;fill-opacity:1;fill-rule:nonzero;stroke:none"
         d="m 1885.05,1013.39 c 0,-69.91 28.81,-110.992 76.65,-110.992 47.83,0 76.65,40.473 76.65,107.932 0,69.89 -28.82,111.6 -76.04,111.6 -48.45,0 -77.26,-40.47 -77.26,-108.54 z m -73.59,-1.22 c 0,104.24 52.74,160.65 150.24,160.65 46,0 76.65,-9.8 101.78,-32.51 31.9,-28.81 48.45,-71.74 48.45,-125.08 0,-107.929 -51.5,-164.351 -150.85,-164.351 -47.22,0 -75.42,9.203 -101.8,33.121 -32.48,28.219 -47.82,69.922 -47.82,128.17" /><path
         id="path46"
         style="fill:#231f20;fill-opacity:1;fill-rule:nonzero;stroke:none"
         d="m 2398.83,920.18 v -31.27 c 0,-19.629 -42.92,-33.73 -99.94,-33.73 -95.05,0 -151.47,57.652 -151.47,155.76 0,97.5 61.31,161.88 153.91,161.88 53.97,0 97.5,-13.48 97.5,-30.65 v -33.12 c 0,-4.28 -3.07,-7.37 -6.74,-7.37 -2.45,0 -6.13,1.23 -11.05,3.69 -17.78,9.83 -45.38,16.56 -67.44,16.56 -60.7,0 -92.59,-36.19 -92.59,-105.47 0,-73.589 29.44,-109.159 88.91,-109.159 24.53,0 53.96,7.371 72.97,18.398 3.67,2.442 7.36,3.672 9.81,3.672 3.68,0 6.13,-3.672 6.13,-9.191" /><path
         id="path48"
         style="fill:#231f20;fill-opacity:1;fill-rule:nonzero;stroke:none"
         d="m 2518.56,1152.6 h 1.24 c 7.35,0 8.58,0 18.38,4.89 19.62,10.43 43.54,15.33 69.92,15.33 67.45,0 106.69,-38.63 106.69,-104.85 V 868.059 c 0,-4.289 -3.68,-7.977 -7.97,-7.977 h -57.64 c -4.3,0 -7.97,3.688 -7.97,7.977 v 175.391 c 0,51.51 -17.79,73.57 -58.88,73.57 -39.85,0 -63.77,-16.55 -63.77,-43.53 V 868.059 c 0,-4.289 -3.68,-7.977 -7.97,-7.977 h -57.63 c -4.31,0 -7.98,3.688 -7.98,7.977 v 413.311 c 0,4.28 3.67,7.96 7.98,7.96 h 57.63 c 4.29,0 7.97,-3.68 7.97,-7.96 V 1152.6" /><path
         id="path50"
         style="fill:#e51635;fill-opacity:1;fill-rule:nonzero;stroke:none"
         d="m 1897.44,1727.9 h -180.51 c -20.39,0 -65.01,-4.25 -96.36,-23.25 -25.77,-15.62 -45.32,-43.41 -45.32,-43.41 0,0 -19.51,27.79 -45.37,43.41 -31.31,19 -75.92,23.25 -96.34,23.25 h -180.11 c 16.19,-30.9 36.57,-60.65 62.25,-86.32 140.17,-140.17 259.53,-185.69 259.53,-185.69 0,0 117.53,43.15 259.99,185.6 25.71,25.72 46.09,55.5 62.24,86.41" /><path
         id="path52"
         style="fill:#80cc28;fill-opacity:1;fill-rule:nonzero;stroke:none"
         d="m 2018.69,1951.55 -23.88,-58.19 c 0,0 -27.88,-12.05 -72.49,-12.05 -44.64,0 -40.83,3.74 -86.41,3.74 -99.72,0 -143.32,-34.05 -143.32,-34.05 0,0 21.49,47.04 80.38,71.6 28.59,11.98 51.54,13.69 68.39,13.69 16.83,0 67.06,-7.72 97.57,-7.72 34.51,0 79.76,22.98 79.76,22.98" /><path
         id="path54"
         style="fill:#80cc28;fill-opacity:1;fill-rule:nonzero;stroke:none"
         d="m 1132.39,1951.55 23.87,-58.19 c 0,0 27.86,-12.05 72.5,-12.05 44.64,0 40.84,3.74 86.43,3.74 99.7,0 143.31,-34.05 143.31,-34.05 0,0 -21.52,47.04 -80.38,71.6 -28.59,11.98 -51.56,13.69 -68.4,13.69 -16.84,0 -67.03,-7.72 -97.57,-7.72 -34.5,0 -79.76,22.98 -79.76,22.98" /><path
         id="path56"
         style="fill:#fab20b;fill-opacity:1;fill-rule:nonzero;stroke:none"
         d="m 1696.94,2184.98 c 0,30.43 -11.24,58.34 -29.68,79.81 l -5.5,-403.49 -11.49,419.79 c -10.56,8.35 -22.52,14.95 -35.5,19.4 l -6,-469.59 -12.15,474.25 c -6.89,1.2 -13.91,1.94 -21.14,1.9 -7.23,-0.02 -14.25,-0.81 -21.14,-2.04 l -12.15,-474.11 -6.02,469.35 c -12.97,-4.48 -24.94,-11.07 -35.52,-19.41 l -11.46,-419.54 -5.52,403.31 c -18.46,-21.39 -29.7,-49.18 -29.7,-79.63 0,-22.83 -4.15,-184.61 -3.85,-251.87 0.3,-74.12 55.94,-108.09 81.73,-117.76 39.05,-14.67 43.63,-49.73 43.63,-49.73 0,0 4.56,35.06 43.59,49.73 25.77,9.67 80.46,43.64 81.74,117.76 1.17,67.23 -3.87,229.04 -3.87,251.87" /><path
         id="path58"
         style="fill:#559821;fill-opacity:1;fill-rule:nonzero;stroke:none"
         d="m 1988.83,1818.86 c 0,0 -244.57,0 -265.08,0 -86.13,0 -145.52,-53.74 -148.22,-121.09 2.5,3.35 27.29,70.92 145.45,70.92 23.88,0 247.15,0 247.15,0 l 20.83,49.89 -0.13,0.28" /><path
         id="path60"
         style="fill:#559821;fill-opacity:1;fill-rule:nonzero;stroke:none"
         d="m 1162.26,1819.02 c 0,0 244.56,0 265.07,0 86.14,0 145.53,-53.74 148.24,-121.09 -2.5,3.34 -27.31,70.92 -145.45,70.92 -23.89,0 -247.16,0 -247.16,0 l -20.82,49.9 0.12,0.27" /><path
         id="path62"
         style="fill:#e51635;fill-opacity:1;fill-rule:nonzero;stroke:none"
         d="m 1193.55,1963.36 c 0,-7.13 0.53,-18.64 1.99,-33.26 5.65,-0.93 11.26,-1.53 16.61,-1.53 30.54,0 80.73,7.72 97.57,7.72 16.84,0 39.81,-1.71 68.4,-13.69 6.57,-2.74 12.64,-5.77 18.3,-8.97 -1.5,7.82 -2.79,16.36 -2.79,22.69 0,1.79 0.24,11.91 0.63,27.09 l -16.69,9.14 -44.38,1.89 v 4.85 l 44.38,1.92 17.42,9.51 c 0.41,15.76 0.89,33.71 1.4,52.21 l -17.07,9.33 -44.37,1.88 v 4.88 l 44.37,1.91 17.83,9.73 c 0.54,19.57 1.07,38.79 1.54,55.73 l -17.13,11.31 -44.05,5.64 0.21,2.46 0.22,2.4 44.34,-1.84 17.17,7.57 c 0.53,18.94 0.87,31.11 0.87,31.11 0,9.23 0.72,18.28 2.11,27.12 l -16.21,17.34 -41.56,15.8 0.76,2.34 0.73,2.29 42.73,-12.2 20.83,3.8 c 5.54,16.22 13.41,31.37 23.21,45.05 l -0.45,0.39 -9.04,22.9 -32.77,30.26 1.56,1.87 1.56,1.89 35.2,-27.37 23.91,-4.95 0.94,-0.8 c 10.77,10.37 22.85,19.38 36,26.73 l -0.59,1.25 1.45,24.62 -17.05,41.43 2.22,1.04 2.16,1.01 20.46,-39.78 19.63,-14.71 0.86,-1.93 c 13.2,4.46 27.07,7.39 41.44,8.57 l 10.82,21.02 1.86,46.7 h -379.54 c 0,0 0,-423.44 0,-463.36 z m 384.37,463.36 1.92,-46.7 10.85,-21.12 c 14.37,-1.29 28.22,-4.32 41.38,-8.87 l 1.06,2.33 19.6,14.71 20.47,39.78 2.16,-1.01 2.22,-1.04 -17.05,-41.43 1.44,-24.62 -0.88,-1.87 c 12.99,-7.39 24.95,-16.38 35.57,-26.73 l 1.67,1.42 23.91,4.95 35.18,27.37 1.57,-1.89 1.56,-1.87 -32.77,-30.26 -9.03,-22.9 -1.31,-1.13 c 9.5,-13.4 17.17,-28.2 22.62,-44.05 l 22.28,-4.06 42.72,12.2 0.74,-2.29 0.75,-2.34 -41.55,-15.8 -16.75,-17.93 -0.68,-0.23 c 1.3,-8.57 1.97,-17.36 1.97,-26.3 0,0 0.32,-11.9 0.83,-30.5 l 18.58,-8.18 44.33,1.84 0.22,-2.4 0.2,-2.46 -44.03,-5.64 -18.5,-12.21 c 0.44,-16.5 0.94,-35.09 1.46,-54.05 l 19.26,-10.51 44.38,-1.91 v -4.88 l -44.38,-1.88 -18.47,-10.11 c 0.47,-17.9 0.93,-35.27 1.33,-50.62 l 18.9,-10.32 44.38,-1.92 v -4.85 l -44.38,-1.89 -18.15,-9.93 c 0.38,-14.86 0.59,-24.71 0.59,-26.46 0,-6.4 -1.27,-15.13 -2.75,-23.07 h 0.35 c 5.94,3.4 12.35,6.62 19.28,9.51 28.59,11.98 51.54,13.69 68.39,13.69 16.83,0 67.06,-7.72 97.57,-7.72 5.32,0 10.89,0.59 16.52,1.52 1.42,14.63 1.92,26.14 1.92,33.27 0,39.92 0,463.36 0,463.36 h -379.45" /></g></g></svg>