<?xml version="1.0" encoding="UTF-8"?>
<svg xmlns="http://www.w3.org/2000/svg" xmlns:xlink="http://www.w3.org/1999/xlink" width="595pt" height="842pt" viewBox="0 0 595 842" version="1.1">
<g id="surface1">
<path style=" stroke:none;fill-rule:nonzero;fill:rgb(93.650818%,90.460205%,74.768066%);fill-opacity:1;" d="M 0 842 L 313 842 L 313 547 L 0 547 Z M 0 842 "/>
<path style=" stroke:none;fill-rule:nonzero;fill:rgb(13.729858%,12.159729%,12.548828%);fill-opacity:1;" d="M 49.675781 723.636719 L 49.675781 755.167969 C 49.675781 755.617188 49.308594 756.003906 48.875 756.003906 L 44.324219 756.003906 C 43.894531 756.003906 43.523438 755.617188 43.523438 755.167969 L 43.523438 714.171875 C 43.523438 713.722656 43.894531 713.339844 44.324219 713.339844 L 52.136719 713.339844 C 53.734375 713.339844 54.167969 713.65625 54.660156 715.191406 L 65.792969 749.222656 L 76.375 715.898438 C 77.113281 713.65625 77.359375 713.339844 78.710938 713.339844 L 87.015625 713.339844 C 87.445312 713.339844 87.816406 713.722656 87.816406 714.171875 L 87.816406 755.167969 C 87.816406 755.617188 87.445312 756.003906 87.015625 756.003906 L 80.617188 756.003906 C 80.1875 756.003906 79.820312 755.617188 79.820312 755.167969 L 79.820312 723.636719 L 69.792969 753.378906 C 68.992188 755.808594 68.746094 756.003906 67.148438 756.003906 L 62.164062 756.003906 C 60.996094 756.003906 60.6875 755.683594 60.011719 753.761719 L 49.675781 723.636719 "/>
<path style=" stroke:none;fill-rule:nonzero;fill:rgb(13.729858%,12.159729%,12.548828%);fill-opacity:1;" d="M 66.4375 770.5625 L 68.609375 770.5625 C 68.753906 770.5625 68.878906 770.6875 68.878906 770.835938 L 68.878906 779.328125 C 68.878906 780.871094 69.046875 781.394531 69.757812 781.980469 C 70.363281 782.480469 71.050781 782.710938 72.03125 782.710938 C 73.011719 782.710938 73.722656 782.5 74.328125 782.0625 C 75.121094 781.476562 75.347656 780.871094 75.347656 779.390625 L 75.347656 770.835938 C 75.347656 770.6875 75.472656 770.5625 75.621094 770.5625 L 77.207031 770.5625 C 77.375 770.5625 77.5 770.6875 77.5 770.835938 L 77.5 780.164062 C 77.5 781.6875 76.914062 782.898438 75.828125 783.730469 C 74.847656 784.464844 73.660156 784.796875 71.863281 784.796875 C 70.027344 784.796875 68.777344 784.464844 67.773438 783.691406 C 66.542969 782.753906 66.167969 781.769531 66.167969 779.453125 L 66.167969 770.835938 C 66.167969 770.6875 66.292969 770.5625 66.4375 770.5625 "/>
<path style=" stroke:none;fill-rule:nonzero;fill:rgb(13.729858%,12.159729%,12.548828%);fill-opacity:1;" d="M 90.640625 773.777344 L 90.640625 784.214844 C 90.640625 784.359375 90.511719 784.480469 90.367188 784.480469 L 88.824219 784.480469 C 88.675781 784.480469 88.550781 784.359375 88.550781 784.214844 L 88.550781 770.835938 C 88.550781 770.6875 88.675781 770.5625 88.824219 770.5625 L 91.117188 770.5625 C 91.472656 770.5625 91.640625 770.667969 91.828125 770.980469 L 97.941406 780.871094 L 97.941406 770.835938 C 97.941406 770.6875 98.066406 770.5625 98.214844 770.5625 L 99.757812 770.5625 C 99.90625 770.5625 100.03125 770.6875 100.03125 770.835938 L 100.03125 784.214844 C 100.03125 784.359375 99.90625 784.480469 99.757812 784.480469 L 97.652344 784.480469 C 97.316406 784.480469 97.128906 784.378906 96.941406 784.066406 L 90.640625 773.777344 "/>
<path style=" stroke:none;fill-rule:nonzero;fill:rgb(13.729858%,12.159729%,12.548828%);fill-opacity:1;" d="M 111.140625 784.214844 L 111.140625 770.835938 C 111.140625 770.6875 111.265625 770.5625 111.410156 770.5625 L 113.582031 770.5625 C 113.730469 770.5625 113.855469 770.6875 113.855469 770.835938 L 113.855469 784.214844 C 113.855469 784.359375 113.730469 784.480469 113.582031 784.480469 L 111.410156 784.480469 C 111.265625 784.480469 111.140625 784.359375 111.140625 784.214844 "/>
<path style=" stroke:none;fill-rule:nonzero;fill:rgb(13.729858%,12.159729%,12.548828%);fill-opacity:1;" d="M 130.113281 781.746094 L 133.535156 771.019531 C 133.660156 770.625 133.742188 770.5625 134.140625 770.5625 L 135.433594 770.5625 C 135.707031 770.5625 135.808594 770.625 135.808594 770.8125 C 135.808594 770.878906 135.789062 770.960938 135.769531 771.019531 L 131.40625 783.816406 C 131.175781 784.546875 131.050781 784.648438 130.527344 784.648438 L 129.027344 784.648438 C 128.484375 784.648438 128.402344 784.589844 128.191406 783.980469 L 123.769531 771.0625 C 123.726562 770.980469 123.726562 770.917969 123.726562 770.855469 C 123.726562 770.648438 123.828125 770.5625 124.164062 770.5625 L 125.9375 770.5625 C 126.375 770.5625 126.480469 770.648438 126.605469 771.042969 L 130.113281 781.746094 "/>
<path style=" stroke:none;fill-rule:nonzero;fill:rgb(13.729858%,12.159729%,12.548828%);fill-opacity:1;" d="M 148.402344 772.648438 L 148.402344 776.136719 L 152.722656 776.136719 C 152.867188 776.136719 152.992188 776.261719 152.992188 776.40625 L 152.992188 777.953125 C 152.992188 778.097656 152.867188 778.222656 152.722656 778.222656 L 148.402344 778.222656 L 148.402344 782.394531 L 154.183594 782.394531 C 154.328125 782.394531 154.453125 782.519531 154.453125 782.667969 L 154.453125 784.214844 C 154.453125 784.359375 154.328125 784.480469 154.183594 784.480469 L 145.960938 784.480469 C 145.8125 784.480469 145.6875 784.359375 145.6875 784.214844 L 145.6875 770.835938 C 145.6875 770.6875 145.8125 770.5625 145.960938 770.5625 L 153.769531 770.5625 C 153.910156 770.5625 154.035156 770.6875 154.035156 770.835938 L 154.035156 772.378906 C 154.035156 772.523438 153.910156 772.648438 153.769531 772.648438 L 148.402344 772.648438 "/>
<path style=" stroke:none;fill-rule:nonzero;fill:rgb(13.729858%,12.159729%,12.548828%);fill-opacity:1;" d="M 167.253906 776.53125 L 169.046875 776.53125 C 170.238281 776.53125 171.007812 775.695312 171.007812 774.425781 C 171.007812 773.148438 170.238281 772.355469 169.023438 772.355469 L 167.253906 772.355469 Z M 167.253906 778.054688 L 167.253906 784.214844 C 167.253906 784.359375 167.128906 784.480469 166.980469 784.480469 L 164.8125 784.480469 C 164.664062 784.480469 164.539062 784.359375 164.539062 784.214844 L 164.539062 770.835938 C 164.539062 770.6875 164.664062 770.5625 164.8125 770.5625 L 169.398438 770.5625 C 171.027344 770.5625 171.886719 770.8125 172.636719 771.503906 C 173.347656 772.148438 173.722656 773.046875 173.722656 774.152344 C 173.722656 776.238281 172.71875 777.449219 170.777344 777.722656 L 170.859375 777.847656 C 170.988281 778.035156 171.21875 778.347656 171.550781 778.785156 C 172.113281 779.558594 172.488281 780.082031 172.761719 780.476562 L 174.996094 783.816406 C 175.160156 784.042969 175.183594 784.128906 175.183594 784.214844 C 175.183594 784.398438 175.015625 784.480469 174.683594 784.480469 L 172.304688 784.480469 C 172.195312 784.480469 172.113281 784.441406 172.074219 784.359375 L 168.128906 778.347656 C 167.960938 778.097656 167.898438 778.054688 167.628906 778.054688 L 167.253906 778.054688 "/>
<path style=" stroke:none;fill-rule:nonzero;fill:rgb(13.729858%,12.159729%,12.548828%);fill-opacity:1;" d="M 189.023438 778.867188 L 186.9375 777.390625 C 185.582031 776.429688 185.101562 775.613281 185.101562 774.277344 C 185.101562 771.898438 186.898438 770.355469 189.671875 770.355469 C 191.613281 770.355469 193.03125 770.8125 193.03125 771.417969 L 193.03125 772.921875 C 193.03125 773.109375 192.949219 773.214844 192.804688 773.214844 C 192.71875 773.214844 192.613281 773.191406 192.488281 773.132812 C 191.527344 772.628906 190.777344 772.441406 189.839844 772.441406 C 188.546875 772.441406 187.8125 772.984375 187.8125 773.921875 C 187.8125 774.570312 188.148438 775.007812 189.148438 775.65625 L 191.402344 777.15625 C 192.867188 778.140625 193.449219 779.101562 193.449219 780.558594 C 193.449219 783.128906 191.65625 784.609375 188.566406 784.609375 C 186.394531 784.609375 184.683594 784.042969 184.683594 783.3125 L 184.683594 781.894531 C 184.683594 781.707031 184.769531 781.605469 184.9375 781.605469 C 184.996094 781.605469 185.121094 781.644531 185.246094 781.707031 C 186.355469 782.289062 187.210938 782.542969 188.210938 782.542969 C 189.714844 782.542969 190.527344 781.9375 190.527344 780.851562 C 190.527344 780.121094 190.214844 779.707031 189.023438 778.867188 "/>
<path style=" stroke:none;fill-rule:nonzero;fill:rgb(13.729858%,12.159729%,12.548828%);fill-opacity:1;" d="M 203.90625 784.214844 L 203.90625 770.835938 C 203.90625 770.6875 204.03125 770.5625 204.175781 770.5625 L 206.347656 770.5625 C 206.492188 770.5625 206.617188 770.6875 206.617188 770.835938 L 206.617188 784.214844 C 206.617188 784.359375 206.492188 784.480469 206.347656 784.480469 L 204.175781 784.480469 C 204.03125 784.480469 203.90625 784.359375 203.90625 784.214844 "/>
<path style=" stroke:none;fill-rule:nonzero;fill:rgb(13.729858%,12.159729%,12.548828%);fill-opacity:1;" d="M 220.664062 772.605469 L 216.761719 772.605469 C 216.613281 772.605469 216.488281 772.480469 216.488281 772.335938 L 216.488281 770.835938 C 216.488281 770.6875 216.613281 770.5625 216.761719 770.5625 L 227.320312 770.5625 C 227.488281 770.5625 227.613281 770.6875 227.613281 770.835938 L 227.613281 772.335938 C 227.613281 772.480469 227.488281 772.605469 227.320312 772.605469 L 223.378906 772.605469 L 223.378906 784.214844 C 223.378906 784.359375 223.253906 784.480469 223.105469 784.480469 L 220.933594 784.480469 C 220.789062 784.480469 220.664062 784.359375 220.664062 784.214844 L 220.664062 772.605469 "/>
<path style=" stroke:none;fill-rule:nonzero;fill:rgb(13.729858%,12.159729%,12.548828%);fill-opacity:1;" d="M 241.769531 779.035156 L 237.070312 771.085938 C 236.988281 770.980469 236.96875 770.878906 236.96875 770.8125 C 236.96875 770.667969 237.113281 770.5625 237.363281 770.5625 L 239.429688 770.5625 C 239.828125 770.5625 239.949219 770.648438 240.160156 771.019531 L 243.375 776.511719 L 246.421875 770.894531 C 246.566406 770.648438 246.691406 770.5625 246.984375 770.5625 L 248.445312 770.5625 C 248.675781 770.5625 248.84375 770.667969 248.84375 770.8125 C 248.84375 770.878906 248.800781 770.960938 248.757812 771.042969 L 244.480469 778.890625 L 244.480469 784.214844 C 244.480469 784.359375 244.355469 784.480469 244.210938 784.480469 L 242.039062 784.480469 C 241.894531 784.480469 241.769531 784.359375 241.769531 784.214844 L 241.769531 779.035156 "/>
<path style=" stroke:none;fill-rule:nonzero;fill:rgb(13.729858%,12.159729%,12.548828%);fill-opacity:1;" d="M 114.316406 754.519531 L 114.191406 754.519531 C 113.273438 754.519531 113.027344 754.582031 112.167969 754.949219 L 110.269531 755.683594 C 108.796875 756.296875 106.710938 756.605469 104.566406 756.605469 C 97.636719 756.605469 94.078125 753.167969 94.078125 746.484375 L 94.078125 726.128906 C 94.078125 725.699219 94.445312 725.332031 94.875 725.332031 L 100.640625 725.332031 C 101.070312 725.332031 101.4375 725.699219 101.4375 726.128906 L 101.4375 743.910156 C 101.4375 748.753906 103.214844 750.902344 107.386719 750.902344 C 111.371094 750.902344 113.578125 749.308594 113.578125 746.484375 L 113.578125 726.128906 C 113.578125 725.699219 113.886719 725.332031 114.375 725.332031 L 120.078125 725.332031 C 120.570312 725.332031 120.9375 725.699219 120.9375 726.128906 L 120.9375 755.195312 C 120.9375 755.621094 120.570312 755.992188 120.078125 755.992188 L 114.988281 755.992188 C 114.621094 755.992188 114.316406 755.621094 114.316406 755.195312 L 114.316406 754.519531 "/>
<path style=" stroke:none;fill-rule:nonzero;fill:rgb(13.729858%,12.159729%,12.548828%);fill-opacity:1;" d="M 134.023438 727.171875 C 134.761719 727.109375 134.882812 727.109375 135.742188 726.738281 C 138.070312 725.699219 140.585938 725.085938 142.609375 725.085938 C 144.632812 725.085938 145.0625 725.332031 145.0625 726.371094 L 145.0625 730.851562 C 145.0625 731.523438 144.753906 731.832031 144.082031 731.832031 C 143.894531 731.832031 143.589844 731.832031 143.285156 731.769531 L 142.179688 731.648438 L 140.707031 731.402344 C 140.21875 731.34375 139.726562 731.34375 139.234375 731.34375 C 135.925781 731.34375 134.636719 732.628906 134.636719 735.816406 L 134.636719 755.195312 C 134.636719 755.621094 134.269531 755.992188 133.839844 755.992188 L 128.074219 755.992188 C 127.648438 755.992188 127.277344 755.621094 127.277344 755.195312 L 127.277344 726.128906 C 127.277344 725.699219 127.648438 725.332031 128.074219 725.332031 L 133.042969 725.332031 C 133.65625 725.332031 134.023438 725.636719 134.023438 726.128906 L 134.023438 727.171875 "/>
<path style=" stroke:none;fill-rule:nonzero;fill:rgb(13.729858%,12.159729%,12.548828%);fill-opacity:1;" d="M 169.089844 746.976562 L 169.089844 734.589844 C 169.089844 731.402344 167.007812 729.808594 162.898438 729.808594 C 157.378906 729.808594 154.371094 733.609375 154.371094 740.476562 C 154.371094 747.527344 157.316406 751.269531 162.835938 751.269531 C 166.761719 751.269531 169.089844 749.671875 169.089844 746.976562 Z M 169.703125 754.273438 C 169.152344 754.273438 169.027344 754.335938 168.417969 754.644531 C 166.269531 755.808594 163.878906 756.359375 161.484375 756.359375 C 152.71875 756.359375 147.015625 750.226562 147.015625 740.84375 C 147.015625 731.34375 153.023438 724.71875 161.609375 724.71875 C 164 724.71875 165.777344 725.144531 167.558594 726.25 C 168.230469 726.617188 168.355469 726.679688 169.089844 726.679688 L 169.089844 713.863281 C 169.089844 713.433594 169.457031 713.066406 169.886719 713.066406 L 175.648438 713.066406 C 176.078125 713.066406 176.449219 713.433594 176.449219 713.863281 L 176.449219 755.195312 C 176.449219 755.621094 176.078125 755.992188 175.648438 755.992188 L 170.683594 755.992188 C 170.191406 755.992188 169.703125 755.621094 169.703125 755.195312 L 169.703125 754.273438 "/>
<path style=" stroke:none;fill-rule:nonzero;fill:rgb(13.729858%,12.159729%,12.548828%);fill-opacity:1;" d="M 188.503906 740.660156 C 188.503906 747.652344 191.386719 751.761719 196.171875 751.761719 C 200.953125 751.761719 203.835938 747.714844 203.835938 740.96875 C 203.835938 733.976562 200.953125 729.808594 196.230469 729.808594 C 191.386719 729.808594 188.503906 733.855469 188.503906 740.660156 Z M 181.144531 740.78125 C 181.144531 730.359375 186.421875 724.71875 196.171875 724.71875 C 200.769531 724.71875 203.835938 725.699219 206.347656 727.96875 C 209.539062 730.851562 211.191406 735.144531 211.191406 740.476562 C 211.191406 751.269531 206.042969 756.910156 196.109375 756.910156 C 191.386719 756.910156 188.566406 755.992188 185.929688 753.601562 C 182.679688 750.777344 181.144531 746.609375 181.144531 740.78125 "/>
<path style=" stroke:none;fill-rule:nonzero;fill:rgb(13.729858%,12.159729%,12.548828%);fill-opacity:1;" d="M 239.882812 749.980469 L 239.882812 753.109375 C 239.882812 755.070312 235.589844 756.480469 229.890625 756.480469 C 220.382812 756.480469 214.742188 750.71875 214.742188 740.90625 C 214.742188 731.15625 220.871094 724.71875 230.132812 724.71875 C 235.53125 724.71875 239.882812 726.066406 239.882812 727.78125 L 239.882812 731.09375 C 239.882812 731.523438 239.574219 731.832031 239.210938 731.832031 C 238.964844 731.832031 238.597656 731.710938 238.105469 731.464844 C 236.324219 730.480469 233.566406 729.808594 231.359375 729.808594 C 225.289062 729.808594 222.101562 733.425781 222.101562 740.355469 C 222.101562 747.714844 225.046875 751.269531 230.992188 751.269531 C 233.445312 751.269531 236.386719 750.53125 238.289062 749.429688 C 238.65625 749.1875 239.023438 749.0625 239.269531 749.0625 C 239.636719 749.0625 239.882812 749.429688 239.882812 749.980469 "/>
<path style=" stroke:none;fill-rule:nonzero;fill:rgb(13.729858%,12.159729%,12.548828%);fill-opacity:1;" d="M 251.855469 726.738281 L 251.980469 726.738281 C 252.714844 726.738281 252.839844 726.738281 253.816406 726.25 C 255.78125 725.207031 258.171875 724.71875 260.808594 724.71875 C 267.554688 724.71875 271.480469 728.582031 271.480469 735.203125 L 271.480469 755.195312 C 271.480469 755.621094 271.109375 755.992188 270.683594 755.992188 L 264.917969 755.992188 C 264.488281 755.992188 264.121094 755.621094 264.121094 755.195312 L 264.121094 737.65625 C 264.121094 732.503906 262.34375 730.296875 258.234375 730.296875 C 254.246094 730.296875 251.855469 731.953125 251.855469 734.652344 L 251.855469 755.195312 C 251.855469 755.621094 251.488281 755.992188 251.058594 755.992188 L 245.296875 755.992188 C 244.863281 755.992188 244.496094 755.621094 244.496094 755.195312 L 244.496094 713.863281 C 244.496094 713.433594 244.863281 713.066406 245.296875 713.066406 L 251.058594 713.066406 C 251.488281 713.066406 251.855469 713.433594 251.855469 713.863281 L 251.855469 726.738281 "/>
<path style=" stroke:none;fill-rule:nonzero;fill:rgb(89.691162%,8.543396%,20.97168%);fill-opacity:1;" d="M 189.742188 669.210938 L 171.691406 669.210938 C 169.652344 669.210938 165.191406 669.636719 162.058594 671.535156 C 159.480469 673.097656 157.523438 675.875 157.523438 675.875 C 157.523438 675.875 155.574219 673.097656 152.988281 671.535156 C 149.855469 669.636719 145.394531 669.210938 143.355469 669.210938 L 125.34375 669.210938 C 126.960938 672.300781 129 675.273438 131.566406 677.84375 C 145.585938 691.859375 157.519531 696.410156 157.519531 696.410156 C 157.519531 696.410156 169.273438 692.097656 183.519531 677.851562 C 186.089844 675.277344 188.128906 672.300781 189.742188 669.210938 "/>
<path style=" stroke:none;fill-rule:nonzero;fill:rgb(50%,79.998779%,15.684509%);fill-opacity:1;" d="M 201.867188 646.84375 L 199.480469 652.664062 C 199.480469 652.664062 196.691406 653.867188 192.230469 653.867188 C 187.769531 653.867188 188.148438 653.496094 183.589844 653.496094 C 173.617188 653.496094 169.257812 656.898438 169.257812 656.898438 C 169.257812 656.898438 171.40625 652.195312 177.296875 649.738281 C 180.15625 648.542969 182.449219 648.371094 184.136719 648.371094 C 185.820312 648.371094 190.84375 649.144531 193.894531 649.144531 C 197.34375 649.144531 201.867188 646.84375 201.867188 646.84375 "/>
<path style=" stroke:none;fill-rule:nonzero;fill:rgb(50%,79.998779%,15.684509%);fill-opacity:1;" d="M 113.238281 646.84375 L 115.625 652.664062 C 115.625 652.664062 118.410156 653.867188 122.875 653.867188 C 127.339844 653.867188 126.960938 653.496094 131.519531 653.496094 C 141.488281 653.496094 145.851562 656.898438 145.851562 656.898438 C 145.851562 656.898438 143.699219 652.195312 137.8125 649.738281 C 134.953125 648.542969 132.65625 648.371094 130.972656 648.371094 C 129.289062 648.371094 124.269531 649.144531 121.214844 649.144531 C 117.765625 649.144531 113.238281 646.84375 113.238281 646.84375 "/>
<path style=" stroke:none;fill-rule:nonzero;fill:rgb(97.880554%,69.718933%,4.23584%);fill-opacity:1;" d="M 169.695312 623.503906 C 169.695312 620.460938 168.570312 617.667969 166.726562 615.519531 L 166.175781 655.871094 L 165.027344 613.890625 C 163.972656 613.054688 162.773438 612.394531 161.476562 611.949219 L 160.878906 658.910156 L 159.660156 611.484375 C 158.972656 611.363281 158.269531 611.289062 157.546875 611.296875 C 156.824219 611.296875 156.121094 611.375 155.433594 611.5 L 154.21875 658.910156 L 153.617188 611.976562 C 152.320312 612.421875 151.121094 613.082031 150.066406 613.914062 L 148.917969 655.871094 L 148.367188 615.539062 C 146.519531 617.679688 145.398438 620.457031 145.398438 623.503906 C 145.398438 625.785156 144.980469 641.964844 145.011719 648.6875 C 145.042969 656.101562 150.605469 659.496094 153.183594 660.464844 C 157.089844 661.933594 157.546875 665.4375 157.546875 665.4375 C 157.546875 665.4375 158.003906 661.933594 161.90625 660.464844 C 164.484375 659.496094 169.953125 656.101562 170.082031 648.6875 C 170.199219 641.964844 169.695312 625.785156 169.695312 623.503906 "/>
<path style=" stroke:none;fill-rule:nonzero;fill:rgb(33.381653%,59.41925%,12.835693%);fill-opacity:1;" d="M 198.882812 660.113281 C 198.882812 660.113281 174.425781 660.113281 172.375 660.113281 C 163.761719 660.113281 157.824219 665.488281 157.554688 672.222656 C 157.804688 671.886719 160.28125 665.132812 172.097656 665.132812 C 174.484375 665.132812 196.8125 665.132812 196.8125 665.132812 L 198.894531 660.140625 L 198.882812 660.113281 "/>
<path style=" stroke:none;fill-rule:nonzero;fill:rgb(33.381653%,59.41925%,12.835693%);fill-opacity:1;" d="M 116.226562 660.097656 C 116.226562 660.097656 140.683594 660.097656 142.734375 660.097656 C 151.347656 660.097656 157.285156 665.472656 157.558594 672.207031 C 157.308594 671.871094 154.824219 665.113281 143.011719 665.113281 C 140.621094 665.113281 118.296875 665.113281 118.296875 665.113281 L 116.214844 660.125 L 116.226562 660.097656 "/>
<path style=" stroke:none;fill-rule:nonzero;fill:rgb(89.691162%,8.543396%,20.97168%);fill-opacity:1;" d="M 119.355469 645.664062 C 119.355469 646.378906 119.40625 647.527344 119.554688 648.988281 C 120.117188 649.082031 120.679688 649.144531 121.214844 649.144531 C 124.269531 649.144531 129.289062 648.371094 130.972656 648.371094 C 132.65625 648.371094 134.953125 648.542969 137.8125 649.738281 C 138.46875 650.015625 139.074219 650.316406 139.640625 650.636719 C 139.492188 649.855469 139.363281 649 139.363281 648.367188 C 139.363281 648.1875 139.386719 647.175781 139.425781 645.660156 L 137.757812 644.746094 L 133.320312 644.554688 L 133.320312 644.070312 L 137.757812 643.878906 L 139.5 642.929688 C 139.539062 641.351562 139.589844 639.558594 139.640625 637.707031 L 137.933594 636.773438 L 133.496094 636.585938 L 133.496094 636.097656 L 137.933594 635.90625 L 139.714844 634.933594 C 139.769531 632.976562 139.820312 631.054688 139.867188 629.359375 L 138.15625 628.230469 L 133.75 627.664062 L 133.773438 627.421875 L 133.792969 627.179688 L 138.226562 627.363281 L 139.945312 626.605469 C 139.996094 624.714844 140.03125 623.496094 140.03125 623.496094 C 140.03125 622.574219 140.105469 621.667969 140.242188 620.785156 L 138.621094 619.050781 L 134.464844 617.46875 L 134.542969 617.234375 L 134.613281 617.007812 L 138.886719 618.226562 L 140.972656 617.847656 C 141.523438 616.226562 142.3125 614.710938 143.292969 613.34375 L 143.246094 613.304688 L 142.34375 611.011719 L 139.066406 607.988281 L 139.222656 607.800781 L 139.378906 607.609375 L 142.898438 610.347656 L 145.289062 610.84375 L 145.382812 610.921875 C 146.460938 609.886719 147.667969 608.984375 148.984375 608.25 L 148.925781 608.125 L 149.070312 605.664062 L 147.363281 601.519531 L 147.585938 601.414062 L 147.800781 601.316406 L 149.847656 605.292969 L 151.8125 606.765625 L 151.898438 606.957031 C 153.21875 606.511719 154.605469 606.21875 156.039062 606.101562 L 157.121094 603.996094 L 157.308594 599.328125 L 119.355469 599.328125 C 119.355469 599.328125 119.355469 641.671875 119.355469 645.664062 Z M 157.792969 599.328125 L 157.984375 603.996094 L 159.070312 606.109375 C 160.507812 606.238281 161.890625 606.542969 163.207031 606.996094 L 163.3125 606.765625 L 165.273438 605.292969 L 167.320312 601.316406 L 167.535156 601.414062 L 167.757812 601.519531 L 166.054688 605.664062 L 166.195312 608.125 L 166.109375 608.3125 C 167.40625 609.050781 168.605469 609.949219 169.664062 610.984375 L 169.832031 610.84375 L 172.222656 610.347656 L 175.742188 607.609375 L 175.898438 607.800781 L 176.054688 607.988281 L 172.777344 611.011719 L 171.875 613.304688 L 171.742188 613.414062 C 172.695312 614.757812 173.460938 616.234375 174.007812 617.820312 L 176.234375 618.226562 L 180.507812 617.007812 L 180.578125 617.234375 L 180.65625 617.46875 L 176.5 619.050781 L 174.824219 620.84375 L 174.757812 620.867188 C 174.886719 621.722656 174.953125 622.601562 174.953125 623.496094 C 174.953125 623.496094 174.984375 624.6875 175.035156 626.546875 L 176.894531 627.363281 L 181.328125 627.179688 L 181.351562 627.421875 L 181.371094 627.664062 L 176.96875 628.230469 L 175.117188 629.449219 C 175.160156 631.101562 175.210938 632.960938 175.261719 634.855469 L 177.1875 635.90625 L 181.628906 636.097656 L 181.628906 636.585938 L 177.1875 636.773438 L 175.34375 637.785156 C 175.390625 639.574219 175.433594 641.3125 175.476562 642.847656 L 177.363281 643.878906 L 181.804688 644.070312 L 181.804688 644.554688 L 177.363281 644.746094 L 175.550781 645.738281 C 175.589844 647.222656 175.609375 648.210938 175.609375 648.382812 C 175.609375 649.023438 175.480469 649.898438 175.335938 650.691406 L 175.367188 650.691406 C 175.964844 650.351562 176.605469 650.027344 177.296875 649.738281 C 180.15625 648.542969 182.449219 648.371094 184.136719 648.371094 C 185.820312 648.371094 190.84375 649.144531 193.894531 649.144531 C 194.425781 649.144531 194.980469 649.085938 195.546875 648.992188 C 195.6875 647.527344 195.738281 646.378906 195.738281 645.664062 C 195.738281 641.671875 195.738281 599.328125 195.738281 599.328125 L 157.792969 599.328125 "/>
</g>
</svg>
